<svg width="250" height="250" viewBox="0 0 250 250" version="1.1"
    xmlns="http://www.w3.org/2000/svg" id="h-o-l-ds" style="display: inline;">

    <circle class="Rang" cx="125" cy="125" r="122.5" fill="none" stroke="#2f69c2" stroke-width="3" stroke-dasharray="0" id="Rang0" layer="0"></circle>
    <circle class="Rang" cx="125" cy="125" r="97" fill="none" stroke="#2f69c2" stroke-width="3" stroke-dasharray="1% 0.5%" id="Rang2" layer="2"></circle>
    <g font-size="17" font-style="normal" font-family="Arian Grqi" fill="#2f69c2" stroke="none" font-weight="normal" in="0" rad="120.5" cut="-164" len="345" id="RangText5" layer="5">
        <text transform="translate(96.47,224.49) rotate(-160.84)">
            <tspan>Զ</tspan>
        </text>
        <text transform="translate(84.41,220.21) rotate(-153.73)">
            <tspan>Ր</tspan>
        </text>
        <text transform="translate(72.92,214.44) rotate(-146.37)">
            <tspan>Ո</tspan>
        </text>
        <text transform="translate(61.54,206.76) rotate(-139.22)">
            <tspan>Յ</tspan>
        </text>
        <text transform="translate(52.45,198.82) rotate(-132.34)">
            <tspan>Ց</tspan>
        </text>
        <text transform="translate(43.92,189.33) rotate(-125.46)">
            <tspan>Ն</tspan>
        </text>
        <text transform="translate(36.97,179.44) rotate(-118.45)">
            <tspan>Ե</tspan>
        </text>
        <text transform="translate(30.74,167.75) rotate(-111.22)">
            <tspan>Ր</tspan>
        </text>
        <text transform="translate(26.17,155.74) rotate(-105.71)">
            <tspan></tspan>
        </text>
        <text transform="translate(24.31,148.95) rotate(-100.68)">
            <tspan>Տ</tspan>
        </text>
        <text transform="translate(22.32,138.02) rotate(-93.94)">
            <tspan>Ե</tspan>
        </text>
        <text transform="translate(21.50,124.80) rotate(-86.28)">
            <tspan>Ղ</tspan>
        </text>
        <text transform="translate(22.53,110.44) rotate(-78.62)">
            <tspan>Ե</tspan>
        </text>
        <text transform="translate(25.23,97.47) rotate(-71.23)">
            <tspan>Կ</tspan>
        </text>
        <text transform="translate(29.65,84.75) rotate(-63.19)">
            <tspan>Ա</tspan>
        </text>
        <text transform="translate(36.75,70.93) rotate(-54.92)">
            <tspan>Գ</tspan>
        </text>
        <text transform="translate(45.04,59.28) rotate(-47.27)">
            <tspan>Ի</tspan>
        </text>
        <text transform="translate(54.16,49.54) rotate(-40.49)">
            <tspan>Տ</tspan>
        </text>
        <text transform="translate(62.66,42.38) rotate(-33.61)">
            <tspan>Ո</tspan>
        </text>
        <text transform="translate(74.15,34.85) rotate(-26.60)">
            <tspan>Ւ</tspan>
        </text>
        <text transform="translate(84.53,29.74) rotate(-19.18)">
            <tspan>Թ</tspan>
        </text>
        <text transform="translate(98.93,24.84) rotate(-11.30)">
            <tspan>Ե</tspan>
        </text>
        <text transform="translate(111.93,22.33) rotate(-3.33)">
            <tspan>Ա</tspan>
        </text>
        <text transform="translate(127.45,21.53) rotate(4.32)">
            <tspan>Ն</tspan>
        </text>
        <text transform="translate(139.49,22.52) rotate(9.62)">
            <tspan></tspan>
        </text>
        <text transform="translate(146.43,23.74) rotate(15.24)">
            <tspan>Ե</tspan>
        </text>
        <text transform="translate(159.18,27.31) rotate(22.11)">
            <tspan>Ւ</tspan>
        </text>
        <text transform="translate(169.87,31.73) rotate(27.26)">
            <tspan></tspan>
        </text>
        <text transform="translate(176.11,35.00) rotate(32.95)">
            <tspan>Ծ</tspan>
        </text>
        <text transform="translate(187.39,42.42) rotate(40.25)">
            <tspan>Ր</tspan>
        </text>
        <text transform="translate(197.14,50.79) rotate(48.11)">
            <tspan>Ա</tspan>
        </text>
        <text transform="translate(207.44,62.43) rotate(56.38)">
            <tspan>Գ</tspan>
        </text>
        <text transform="translate(215.28,74.39) rotate(63.90)">
            <tspan>Ր</tspan>
        </text>
        <text transform="translate(220.86,85.96) rotate(71.77)">
            <tspan>Ա</tspan>
        </text>
        <text transform="translate(225.62,100.76) rotate(79.28)">
            <tspan>Ւ</tspan>
        </text>
        <text transform="translate(227.70,112.14) rotate(86.29)">
            <tspan>Ո</tspan>
        </text>
        <text transform="translate(228.50,125.86) rotate(93.65)">
            <tspan>Ր</tspan>
        </text>
        <text transform="translate(227.59,138.68) rotate(101.39)">
            <tspan>Մ</tspan>
        </text>
        <text transform="translate(224.52,153.44) rotate(109.88)">
            <tspan>Ա</tspan>
        </text>
        <text transform="translate(219.13,168.03) rotate(117.53)">
            <tspan>Ն</tspan>
        </text>
        <text transform="translate(213.48,178.70) rotate(122.83)">
            <tspan></tspan>
        </text>
        <text transform="translate(209.62,184.59) rotate(128.95)">
            <tspan>Մ</tspan>
        </text>
        <text transform="translate(200.06,196.26) rotate(137.44)">
            <tspan>Ա</tspan>
        </text>
        <text transform="translate(188.54,206.70) rotate(145.55)">
            <tspan>Ս</tspan>
        </text>
        <text transform="translate(177.16,214.39) rotate(153.05)">
            <tspan>Ի</tspan>
        </text>
        <text transform="translate(165.23,220.36) rotate(160.09)">
            <tspan>Ն</tspan>
        </text>
        <text transform="translate(153.84,224.40) rotate(165.39)">
            <tspan></tspan>
        </text>
        <text transform="translate(147.01,226.13) rotate(169.29)">
            <tspan></tspan>
        </text>
        <text transform="translate(140.09,227.39) rotate(173.19)">
            <tspan></tspan>
        </text>
        <text transform="translate(133.09,228.18) rotate(177.88)">
            <tspan>*</tspan>
        </text>
    </g>
    <g class="Img_l" x="127" y="116" s="56" al="0" transform="translate(57, 46) rotate(0 70 70) scale(0.56) " id="Img14" layer="14">
        <path fill="#2f69c2" fill-rule="nonzero" d="M70.27 48.13c-0.42,1.63 -2.19,9.19 -4.1,17.37 -0.66,2.85 -1.13,3.74 -1.96,3.74 -0.33,0 -1.83,-0.83 -3.35,-1.86 -3.15,-2.13 -3.23,-2.1 -3.81,0.72 -0.97,4.79 -1.66,5.56 -7.86,8.91 -2.57,1.41 -5.2,2.9 -5.81,3.32 -1.68,1.13 -3.12,2.74 -3.48,3.84 -0.69,2.11 -1.77,2.66 -6.17,3.16l-2.74 0.3 -2.05 7.75c-1.1,4.25 -2.87,11.03 -3.95,15.07 -1.05,4.04 -4.59,17.54 -7.86,30.01 -3.26,12.48 -6.36,24.29 -6.88,26.28 -4.82,18.14 -6.86,26.19 -6.7,26.36 0.11,0.11 19.72,0.27 43.62,0.38 40,0.17 52.94,0.42 55.1,1 0.58,0.17 0.86,0.5 1.13,1.27 0.72,2.05 3.79,4.51 7.42,5.98 5.92,2.38 16.57,2.4 23.62,0.11 3.62,-1.19 5.28,-2.21 7.91,-4.84l2.41 -2.46 46.55 0c44.72,0 53.38,-0.14 54.71,-0.83 0.69,-0.39 0.91,0.58 -2.07,-10.38 -1.94,-7.08 -6.04,-22.26 -12.76,-47.29 -1.07,-4.1 -11.83,-44.43 -12.06,-45.26 -0.3,-1.16 -0.35,-1.18 -4.12,-1.63 -3.37,-0.38 -5.89,-1.13 -8.93,-2.65 -3.04,-1.5 -5.45,-3.21 -7.25,-5.12 -1.44,-1.52 -1.82,-2.24 -2.35,-4.31l-0.3 -1.17 -1.44 0.58c-3.54,1.44 -7.3,2.77 -8.99,3.16 -2.99,0.72 -8.08,0.38 -12.97,-0.83 -6.67,-1.66 -9.44,-1.94 -18.62,-1.94 -9.1,-0.03 -12.06,0.25 -20.66,1.91 -2.71,0.53 -5.15,0.97 -5.39,0.97 -0.34,0 -1.11,-1.25 -2.58,-4.12 -5.67,-11.09 -8.99,-12.15 -27.77,-8.88 -6.25,1.08 -8.16,1.08 -11.12,0 -6.55,-2.38 -11.03,-7.69 -14.49,-17.15 -0.58,-1.6 -1.16,-2.99 -1.25,-3.13 -0.08,-0.11 -0.38,0.64 -0.63,1.66l0 0zm2.15 8.99c0.42,0.31 1.61,1.74 2.63,3.13 2.99,4.03 6.09,6.47 10.73,8.49 2.02,0.86 2.3,0.91 5.31,0.88 1.75,0 4.98,-0.27 7.2,-0.61 9.51,-1.41 15.57,-1.52 18.64,-0.33 3.1,1.19 5.89,4.93 6.66,8.91 0.86,4.26 1.03,16.12 0.86,53.6 -0.16,34.47 -0.3,41.74 -0.77,42.21 -0.25,0.25 -3.38,-1.55 -9.63,-5.56 -6.08,-3.9 -8.41,-5.23 -12.75,-7.3 -8.41,-4.01 -17.26,-5.89 -25.56,-5.45 -1.82,0.11 -6.06,0.61 -9.4,1.13 -11.95,1.86 -16.18,1.97 -17.01,0.45 -0.42,-0.78 0.86,-7.55 5.23,-28.1 6.44,-30.26 15.12,-68.16 16.37,-71.42 0.3,-0.78 0.53,-0.8 1.49,-0.03l0 0zm-11.11 13.8c2.07,1.36 2.4,1.97 2.4,4.24 0,3.48 -0.52,6.16 -8.55,44.28 -3.04,14.44 -6.11,29.24 -6.83,32.89 -1.27,6.39 -1.3,6.61 -0.8,6.97 0.69,0.5 3.15,0.5 9.74,-0.03 2.85,-0.22 6.75,-0.53 8.65,-0.69 7.25,-0.58 14.64,-0.86 17.57,-0.69 7,0.41 13.11,2.32 22.26,6.91 5.2,2.6 9.96,5.67 9.96,6.42 0,0.39 -0.83,0.11 -6.58,-2.1 -12.2,-4.71 -19.31,-6.17 -30.2,-6.17 -6.92,0 -8.3,0.11 -24.35,1.88 -6.16,0.69 -12.64,1.27 -14.38,1.3l-3.18 0.05 0.08 -0.83c0.7,-6.5 19.97,-89.53 21.97,-94.54 0.35,-0.94 0.66,-0.94 2.24,0.11l0 0zm-7.03 6.17c0.22,0.28 0.14,1 -0.39,2.96 -0.72,2.74 -3.93,16.29 -5.53,23.35 -4.2,18.58 -6.33,28.13 -9.96,44.53 -2.13,9.65 -4.28,20.38 -4.15,20.61 0.09,0.13 0.81,0.19 1.61,0.11 5.11,-0.42 11.64,-1.08 18.72,-1.91 12.53,-1.47 17.1,-1.86 23.1,-1.86 7.27,-0.02 11.7,0.56 20.61,2.66 5.42,1.27 12.72,4.37 12.72,5.42 0,0.11 -1.02,-0.03 -2.27,-0.3 -15.4,-3.52 -18.03,-3.88 -29.79,-4.04 -14.85,-0.22 -26.47,0.69 -39.44,3.1 -5.75,1.07 -6.8,1.24 -8.08,1.24 -1.1,0 -1.19,-0.05 -1.19,-0.77 0,-1.39 0.78,-5.09 3.05,-14.58 1.21,-5.17 2.9,-12.39 3.76,-16.04 2.16,-9.35 4.01,-17.23 7.85,-33.47 1.86,-7.77 3.96,-16.9 4.73,-20.33 2.08,-9.43 2.66,-11.07 3.85,-11.07 0.27,0 0.63,0.17 0.8,0.39l0 0zm103.06 2.13c4.26,0.36 9.02,1.11 15.07,2.32 6.67,1.36 10.21,1.83 11.98,1.53 0.8,-0.12 2.63,-0.64 4.07,-1.11 1.66,-0.58 3.23,-0.91 4.28,-0.94l1.64 -0.03 0.49 1.3c2.22,5.95 25.12,89.48 25.12,91.67 0,0.3 -5.34,-0.09 -13.56,-1 -10.84,-1.19 -14.32,-1.38 -25.86,-1.38 -20.91,0 -33.58,1.13 -41.51,3.73 -1.64,0.53 -4.79,1.85 -6.97,2.9 -2.22,1.08 -4.04,1.94 -4.1,1.94 -0.25,0 -0.08,-81.98 0.17,-88.1 0.27,-6.72 0.5,-8.49 1.16,-9.15 0.86,-0.8 14.24,-3.15 21.19,-3.68 1.63,-0.11 3.1,-0.25 3.23,-0.25 0.17,-0.03 1.77,0.08 3.6,0.25l0 0zm-108.62 0.58c0.58,0.58 0.36,4.51 -0.47,8.38 -0.44,1.97 -1.52,6.53 -2.43,10.1 -2,7.66 -3.71,14.91 -8.97,37.42 -6.88,29.57 -8.27,35.88 -8.27,37.84l0 0.86 1.75 -0.2c2.37,-0.24 11.47,-1.38 17.62,-2.18 11.2,-1.49 23.34,-2.24 30.98,-1.96 5.78,0.22 12.41,0.85 15.62,1.49 3.57,0.72 10.79,2.6 10.46,2.71 -0.17,0.06 -2.02,-0.08 -4.15,-0.33 -5.95,-0.72 -20.11,-0.86 -29.26,-0.31 -14.83,0.92 -27.42,2.52 -41.16,5.29 -7.17,1.44 -7.66,1.46 -7.66,0.69 0,-0.91 0.99,-5.37 3.34,-14.94 1.22,-4.95 3.32,-13.77 4.68,-19.64 1.35,-5.86 3.15,-13.25 4.01,-16.45 0.83,-3.18 2.21,-8.91 3.07,-12.73 4.15,-18.64 8.27,-34.05 9.54,-35.65 0.64,-0.8 0.83,-0.86 1.3,-0.39l0 0zm-5.48 5.31c0,1.88 -0.91,6.67 -1.66,8.83 -0.66,1.85 -2.96,10.98 -6.75,26.74 -1.43,6.01 -4.03,16.85 -5.78,24.07 -9.48,39.44 -9.1,37.53 -7.82,37.25 7.88,-1.76 33.16,-5.94 41.65,-6.88 4.15,-0.47 24.65,-0.45 31.39,0.03 12.59,0.88 18.45,2.35 26.47,6.72 4.96,2.68 5.37,2.71 11.7,1.19 12.31,-2.94 20.89,-3.85 36.24,-3.88 10.76,0 14.16,0.17 24.15,1.14 13.91,1.33 34.71,2.21 35.73,1.52 0.47,-0.33 -0.47,-4.18 -11.06,-45.25 -5.92,-22.99 -10.79,-43.57 -10.79,-45.61 0,-0.92 0.8,-0.97 1.94,-0.17 0.61,0.42 0.99,1.16 1.63,3.13 3.76,11.5 18.03,66.1 23.01,88.17 0.17,0.7 0.31,2.08 0.34,3.05l0.05 1.77 -45.42 0.08 -45.41 0.06 -0.31 1.19c-1.22,4.84 -3.54,6.91 -9.13,8.13 -3.4,0.72 -16.76,0.75 -20.05,0 -2.52,-0.56 -5.12,-1.69 -6.42,-2.79 -1.19,-1 -2.21,-3.21 -2.6,-5.62l-0.33 -1.96 -41.1 -0.14c-44.98,-0.17 -47.05,-0.22 -47.05,-1.69 0,-0.19 0.61,-2.65 1.35,-5.45 0.75,-2.79 2.36,-8.96 3.6,-13.66 4.95,-18.87 11.17,-42.68 12.78,-48.82 5.01,-19.25 8.27,-31.03 8.85,-32.14 0.5,-0.91 0.8,-0.53 0.8,0.99l0 0zm157.75 1.03c0.33,0.19 0.69,0.47 0.8,0.63 1.13,1.69 7.69,25.59 15.99,58.12 1.55,6.08 3.68,14.35 4.7,18.39 4.84,18.7 4.54,17.2 3.54,17.73 -1.41,0.77 -10.18,0.28 -27.88,-1.52 -11.92,-1.22 -15.74,-1.33 -36.84,-1.14 -16.85,0.17 -19.59,0.14 -19.59,-0.19 0,-1.13 10.54,-3.26 20.61,-4.15 5.53,-0.47 25.42,-0.47 32.36,0 6.14,0.44 17.51,1.55 21.8,2.13 1.63,0.22 3.84,0.42 4.89,0.42 1.91,0 1.94,0 1.94,-0.72 0,-0.42 -0.33,-1.94 -0.72,-3.4 -1.71,-6.37 -6.69,-24.34 -8.82,-31.84 -4.26,-15.1 -15.08,-54.13 -15.08,-54.44 0,-0.41 1.52,-0.41 2.3,-0.02l0 0z"></path>
    </g>
</svg>